<?xml version="1.0" encoding="utf-8"?>
<!-- Generator: Adobe Illustrator 24.1.0, SVG Export Plug-In . SVG Version: 6.00 Build 0)  -->
<svg version="1.1" id="Calque_1" xmlns="http://www.w3.org/2000/svg" xmlns:xlink="http://www.w3.org/1999/xlink" x="0px" y="0px"
	 viewBox="0 0 595.3 841.9" style="enable-background:new 0 0 595.3 841.9;" xml:space="preserve">
<style type="text/css">
	.st0{fill:#FFFFFF;}
</style>
<path class="st0" d="M314.4,201.7c-41.5,0-46.7,0.2-63,0.9c-16.3,0.7-27.4,3.3-37.1,7.1c-10,3.9-18.6,9.1-27,17.6
	c-8.5,8.5-13.7,17-17.6,27c-3.8,9.7-6.3,20.8-7.1,37.1c-0.7,16.3-0.9,21.5-0.9,63s0.2,46.7,0.9,63c0.8,16.3,3.3,27.4,7.1,37.1
	c3.9,10,9.1,18.6,17.6,27c8.5,8.5,17,13.7,27,17.6c9.7,3.8,20.8,6.3,37.1,7.1c16.3,0.7,21.5,0.9,63,0.9c41.5,0,46.7-0.2,63-0.9
	c16.3-0.8,27.4-3.3,37.1-7.1c10-3.9,18.6-9.1,27-17.6c8.5-8.5,13.7-17,17.6-27c3.8-9.7,6.4-20.8,7.1-37.1c0.7-16.3,0.9-21.5,0.9-63
	s-0.2-46.7-0.9-63c-0.7-16.3-3.3-27.4-7.1-37.1c-3.9-10-9.1-18.6-17.6-27c-8.5-8.5-17-13.7-27-17.6c-9.7-3.8-20.8-6.4-37.1-7.1
	C361.1,201.9,355.9,201.7,314.4,201.7 M314.4,229.2c40.8,0,45.6,0.2,61.7,0.9c14.9,0.7,23,3.2,28.4,5.3c7.1,2.8,12.2,6.1,17.6,11.4
	c5.3,5.4,8.6,10.4,11.4,17.6c2.1,5.4,4.6,13.5,5.3,28.4c0.7,16.1,0.9,20.9,0.9,61.7s-0.2,45.6-0.9,61.7c-0.7,14.9-3.2,23-5.3,28.4
	c-2.8,7.1-6.1,12.2-11.4,17.6c-5.4,5.3-10.4,8.6-17.6,11.4c-5.4,2.1-13.5,4.6-28.4,5.3c-16.1,0.7-20.9,0.9-61.7,0.9
	s-45.6-0.2-61.7-0.9c-14.9-0.7-23-3.2-28.4-5.3c-7.1-2.8-12.2-6.1-17.6-11.4c-5.3-5.4-8.6-10.4-11.4-17.6
	c-2.1-5.4-4.6-13.5-5.3-28.4c-0.7-16.1-0.9-20.9-0.9-61.7s0.2-45.6,0.9-61.7c0.7-14.9,3.2-23,5.3-28.4c2.8-7.1,6.1-12.2,11.4-17.6
	c5.4-5.3,10.4-8.6,17.6-11.4c5.4-2.1,13.5-4.6,28.4-5.3C268.8,229.4,273.7,229.2,314.4,229.2"/>
<path class="st0" d="M314.4,405.3c-28.1,0-50.9-22.8-50.9-50.9c0-28.1,22.8-50.9,50.9-50.9c28.1,0,50.9,22.8,50.9,50.9
	C365.3,382.5,342.6,405.3,314.4,405.3 M314.4,276c-43.3,0-78.4,35.1-78.4,78.4c0,43.3,35.1,78.4,78.4,78.4s78.4-35.1,78.4-78.4
	C392.9,311.1,357.7,276,314.4,276"/>
<path class="st0" d="M414.3,272.9c0,10.1-8.2,18.3-18.3,18.3c-10.1,0-18.3-8.2-18.3-18.3s8.2-18.3,18.3-18.3
	C406.1,254.6,414.3,262.8,414.3,272.9"/>
</svg>
