<?xml version="1.0" encoding="utf-8"?>
<!-- Generator: Adobe Illustrator 24.1.0, SVG Export Plug-In . SVG Version: 6.00 Build 0)  -->
<svg version="1.1" id="Calque_1" xmlns="http://www.w3.org/2000/svg" xmlns:xlink="http://www.w3.org/1999/xlink" x="0px" y="0px"
	 viewBox="0 0 841.9 595.3" style="enable-background:new 0 0 841.9 595.3;" xml:space="preserve">
<style type="text/css">
	.st0{fill:#FFFFFF;stroke:#1D1D1B;stroke-width:4;stroke-miterlimit:10;}
	.st1{stroke:#FFFFFF;stroke-width:0.25;stroke-miterlimit:10;}
</style>
<path class="st0" d="M136.4,166.7l265.7-97.5c9.2-3.4,19.2-3.4,28.4-0.1l274.7,97.8c16.6,5.9,27.7,21.7,27.7,39.3v174.9
	c0,17.1-10.4,32.5-26.3,38.8L439.9,525.7c-9.8,3.9-20.7,3.9-30.5,0.1L135.6,419.6c-16.1-6.2-26.6-21.7-26.6-38.9V205.9
	C109,188.4,119.9,172.7,136.4,166.7z"/>
<g>
	<path class="st1" d="M275.2,270.2c-5.5,0-11.5,7.4-16.3,15.9v36.5c3.2,4.8,8.6,10.2,14,10.2c9.5,0,16.8-15.8,16.8-33.1
		C289.6,283.8,283.5,270.2,275.2,270.2z"/>
	<path class="st1" d="M321.6,318.4c0,8.5,4.7,13.4,9.9,13.4c6.7,0,11.8-7.2,15-15.3v-21.6c-3.5,1.3-7.2,2.5-9.5,3.5
		C327.3,302.5,321.6,309,321.6,318.4z"/>
	<path class="st1" d="M210.1,268.6c-8.8,0-13.4,8.6-15.5,18.2h28.2C222.8,276.2,217.5,268.6,210.1,268.6z"/>
	<path class="st1" d="M685.5,179.6L429.9,91.4c-8.5-3-17.9-2.9-26.4,0.1l-247.2,88c-15.3,5.4-25.5,19.6-25.5,35.4v157.7
		c0,15.5,9.8,29.5,24.8,35.1l254.7,95.9c9.1,3.4,19.3,3.4,28.4-0.1L686.8,408c14.8-5.7,24.5-19.6,24.5-35V215.1
		C711.3,199.2,701,185,685.5,179.6z M210.2,338.5c-16.8,0-28.8-16.3-28.8-37.7c0-21.7,12.4-37.4,29-37.4c13.9,0,24.7,10.8,24.7,28.6
		h-41.3c-0.3,2.3-0.4,4.7-0.4,6.9c0,11.8,3.5,32.7,18.2,32.7c9.6,0,16.2-8.8,19.4-20.9l5.3,1C233,323.6,226.3,338.5,210.2,338.5z
		 M275.5,338.5c-6.4,0-12-3.6-16.2-8.2c-3.4,1.8-6,5.1-9,8.2h-2.8v-79.3c0-6.3-2.3-7.4-6.6-7.4v-2.9c6-1,13.1-4.4,15-6.9h2.9v35.3
		c4.8-7.4,10.8-13.9,18.8-13.9c10.4,0,24.4,9.8,24.4,34.4C302.1,321.1,289.6,338.5,275.5,338.5z M355.3,338.5
		c-5.8,0-8.9-3.9-8.8-11.2v-1.2c-4.7,8.9-11.2,12.4-19.3,12.4c-11.2,0-18-7-18-18.1c0-18.2,18-23.8,27.3-27.1l9.9-3.6v-2.5
		c0-11.8-3.9-18.7-13.1-18.7c-8.5,0-9,5.8-10.1,13.9c-0.7,6.1-3.1,7.6-6,7.6c-3.8,0-6.6-2.6-6.6-7c0-8.8,11.1-19.4,24.2-19.4
		s22.5,10.5,22.9,23.9v40.9c0,5.1,2.6,5.7,6.1,2.3l2.2,1.9C363.4,336,359.4,338.5,355.3,338.5z M422.3,267c-3.5,0-7.4,0.6-9.2,7.3
		l-19.4,75c-1.8,6.6-6,11.7-14.5,11.7c-6.1,0-10.2-2.8-10.2-7.2c0-3.1,2-4.5,4.4-4.5c4.1,0,5.3,4.4,9.2,4.4c2.8,0,4.8-2,5.5-5.4
		l0.9-4.1l-19.3-69.9c-1.9-6.7-5.8-7.3-9.3-7.3v-2.5h26.9v2.5c-3.5,0-7.4,0.6-5.5,7.3l13.3,48.3l12.4-48.3c1.8-6.7-3.1-7.3-7.3-7.3
		v-2.5h22.2v2.5H422.3z M508.7,337.5h-61.5v-2.9c4.1,0,8.8-0.6,8.8-8.9v-78.5c0-8.3-4.7-8.9-8.8-8.9v-2.9h59.4l4.5,21.6h-2.9
		c-4.5-12.7-9.6-16.2-19.3-16.2h-21V281h20.3c7.4,0,8-6.1,8-11.4h2.6v28.3h-2.6c0-5.3-0.6-11.4-8-11.4H468V332h24
		c9.9,0,15.6-6.4,18.1-17.7l2.8,0.6L508.7,337.5z M557.4,338.5c-21,0-36.8-21.5-36.8-52c0-29.3,14.6-52.3,37.1-52.3
		c11.8,0,22.2,4.5,27,10.9l1,19.9h-3.4c-1.6-13.4-9.9-25-23.8-25c-19.4,0-25.1,22.3-25.1,44.8c0,28.9,9.5,47.4,25.8,47.4
		c11.4,0,21.2-9,25.7-22.9l3.4,0.9C586.7,317.5,577.9,338.5,557.4,338.5z M655.7,337.5h-61.5v-2.9c4.1,0,8.8-0.6,8.8-8.9v-78.5
		c0-8.3-4.7-8.9-8.8-8.9v-2.9h59.4l4.5,21.6h-2.9c-4.5-12.7-9.6-16.2-19.3-16.2h-21V281h20.3c7.4,0,8-6.1,8-11.4h2.6v28.3h-2.6
		c0-5.3-0.6-11.4-8-11.4H615V332h24c9.9,0,15.6-6.4,18.1-17.7l2.8,0.6L655.7,337.5z"/>
</g>
</svg>
