<?xml version="1.0" encoding="utf-8"?>
<!-- Generator: Adobe Illustrator 24.1.0, SVG Export Plug-In . SVG Version: 6.00 Build 0)  -->
<svg version="1.1" id="Calque_1" xmlns="http://www.w3.org/2000/svg" xmlns:xlink="http://www.w3.org/1999/xlink" x="0px" y="0px"
	 viewBox="0 0 595.3 841.9" style="enable-background:new 0 0 595.3 841.9;" xml:space="preserve">
<style type="text/css">
	.st0{fill:#FFFFFF;}
</style>
<path class="st0" d="M575.7,332.3l-0.6-1.9c-0.6-1.9-16.3-47.6-59-93.4c-39.2-42.1-109.5-92-222-92c-0.6,0-1.3,0-2,0
	c-110.5,0.6-180.3,50.8-219.4,92.9c-42.3,45.5-58.4,90.5-59.1,92.4l-0.7,2v161.2l168,77l15.1,57.3v65.7h24.5v-1.6h30.4l0.1,2.2
	l24.5-1.2l-0.1-1.1h32l0,1.3l24.5,0.8l0.1-2h28.8v1.6h24.5v-67.5l13.3-55.1l177.2-72.5V332.3z M363.4,612.3l-29,0.3l1.2-38.5h37
	L363.4,612.3z M217.6,613.8l-10.4-39.7h38.1l1.9,39.4L217.6,613.8z M269.9,574.1H311l-1.2,38.8l-38.1,0.4L269.9,574.1z M268.7,549.6
	l-1.3-27.2h45.2l-0.8,27.2H268.7z M378.5,549.6h-42.2l0.8-27.2H385L378.5,549.6z M391.3,473.3H186.7V346.6h204.6V473.3z
	 M242.9,522.3l1.3,27.2h-43.4l-7.2-27.2H242.9z M220.5,667.3v-29l27.9-0.3l1.4,29.3H220.5z M274.3,667.3l-1.4-29.5l36.2-0.4
	l-0.9,29.9H274.3z M332.7,667.3l0.9-30.1l27.1-0.3v30.4H332.7z M551.2,481.9l-145.6,59.5l4.6-19.2h32.8v-49h-27.2V322.1H162.2v151.2
	h-24.2v49h30.3l4.6,17.4l-135.4-62V336.6c3.4-8.6,19.3-45.9,53.9-82.8c52-55.5,119.6-83.9,200.9-84.3C376,169,445,197.2,497.4,253
	c34.9,37.2,50.6,75.1,53.8,83.5V481.9z"/>
</svg>
